<?xml version="1.0" encoding="UTF-8"?><svg id="Calque_2" xmlns="http://www.w3.org/2000/svg" viewBox="0 0 10 10"><defs><style>.cls-1{fill:#010101;}</style></defs><g id="Calque_1-2"><path d="m10,5.01c-.39.07-.75.14-1.12.21-.34.07-.68.14-1.03.2-.39.07-.77.14-1.16.21-.27.05-.55.1-.82.16-.03,0-.06.05-.07.07-.06.3-.12.61-.18.92-.07.39-.15.78-.22,1.17-.06.34-.12.67-.18,1.01-.06.31-.12.61-.18.92,0,.04,0,.08,0,.12,0,0-.02,0-.03,0-.02-.07-.04-.15-.06-.22-.08-.39-.15-.78-.22-1.18-.08-.42-.15-.85-.23-1.27-.07-.38-.15-.75-.22-1.13-.02-.1-.02-.2-.05-.29-.01-.04-.05-.11-.09-.11-.33-.07-.67-.12-1.01-.19-.33-.06-.66-.13-.99-.19-.3-.06-.61-.11-.91-.17-.21-.04-.42-.08-.63-.12-.18-.03-.36-.07-.53-.11-.01,0-.02,0-.06-.03.2-.04.38-.07.56-.11.22-.04.44-.08.65-.12.31-.06.62-.12.93-.18.21-.04.42-.08.63-.12.27-.05.54-.1.8-.15.19-.04.39-.07.58-.12.03,0,.07-.07.08-.11.08-.38.15-.76.22-1.14.06-.35.12-.7.19-1.05.05-.25.1-.5.14-.74.06-.31.11-.61.17-.92.02-.08.03-.16.08-.23.03.18.07.36.1.55.06.34.13.68.19,1.02.07.39.14.79.22,1.18.06.33.13.67.2,1,.02.12.06.24.07.37,0,.1.07.11.13.12.47.09.95.18,1.42.27.39.07.77.13,1.16.21.37.07.74.15,1.11.22.1.02.2.03.3.05.02,0,.04.02.08.03Z"/><path class="cls-1" d="m7.88.68c.07.38.15.75.21,1.13.02.11.09.09.14.1.32.07.65.13.97.19.03,0,.06,0,.09.02-.09.02-.19.05-.28.07-.22.04-.45.11-.67.12-.23,0-.26.14-.29.32-.05.31-.11.61-.18.92-.02-.08-.05-.15-.06-.23-.05-.3-.1-.61-.16-.91,0-.03-.05-.06-.08-.06-.37-.07-.74-.14-1.11-.21-.01,0-.02-.02-.03-.03.39-.07.77-.14,1.16-.22.03,0,.06-.03.07-.06.06-.29.11-.59.16-.89.02-.09.04-.18.05-.27h.02Z"/><path class="cls-1" d="m2.42,6.47c.06.32.12.61.18.9,0,.03.04.06.07.07.28.06.55.11.83.16.02,0,.04.02.08.04-.32.06-.62.12-.92.17-.11.02-.07.11-.08.16-.06.26-.1.52-.14.78,0,.01-.02.02-.04.05-.04-.21-.08-.41-.11-.61-.02-.09-.02-.18-.05-.27-.01-.04-.05-.09-.09-.09-.25-.05-.5-.09-.75-.14-.05,0-.1-.02-.15-.05.09-.02.19-.04.28-.06.21-.04.41-.07.62-.12.04,0,.08-.07.08-.11.05-.26.09-.51.14-.77,0-.03.03-.05.05-.09Z"/></g></svg>