<?xml version="1.0" encoding="UTF-8"?><svg id="Calque_2" xmlns="http://www.w3.org/2000/svg" viewBox="0 0 90.07 90.47"><defs><style>.cls-1{fill:#f39200;}</style></defs><g id="Calque_1-2"><g><path class="cls-1" d="M90.07,45.05v.17c0,.77-.02,1.53-.06,2.29l-9.46,6.9-1.68-1.19,11.2-8.17Z"/><path class="cls-1" d="M89.48,37.9l-15.91,11.58-1.68-1.19,17.2-12.52c.15,.7,.29,1.41,.4,2.13Z"/><path class="cls-1" d="M88.9,55.49c-.24,1.02-.51,2.02-.81,3.01h0l-.85,.62-1.69-1.19,3.35-2.44Z"/><path class="cls-1" d="M87.24,59.13l.53,.38c-.21,.65-.44,1.28-.68,1.91l-2.06-1.45s-.06-.05-.09-.07l-6.57-4.63h0s-.07-.05-.1-.08l-6.89-4.86h0s-.07-.05-.1-.08l-6.72-4.74h0s-.07-.05-.1-.08l-4.48-3.16,.63-1.95,4.47,3.16,1.68,1.19,5.15,3.63,1.68,1.19,5.3,3.74,1.68,1.19,4.99,3.52,1.69,1.19Z"/><path class="cls-1" d="M86.58,27.76c.26,.62,.51,1.25,.74,1.88l-20.58,15.02-1.68-1.19,21.53-15.71Z"/><path class="cls-1" d="M84.56,66.9c-.31,.57-.64,1.14-.97,1.7l-26.18-18.47,.63-1.95,26.52,18.72Z"/><path class="cls-1" d="M83.85,22.3l-22.84,16.67,1.02-3.17,20.79-15.17c.36,.55,.7,1.1,1.03,1.67Z"/><path class="cls-1" d="M80.08,73.6c-.41,.51-.83,1.01-1.26,1.5l-24.01-16.95,.63-1.95,24.65,17.4Z"/><path class="cls-1" d="M78.02,14.45c.44,.48,.88,.97,1.3,1.47l-14.21,10.37,1.03-3.17,11.88-8.68Z"/><path class="cls-1" d="M74.5,79.41c-.51,.44-1.03,.88-1.56,1.29l-20.72-14.54,.63-1.94,21.66,15.19Z"/><path class="cls-1" d="M73.2,9.94l-3.66,2.67,1.02-3.17,1.03-.75c.55,.4,1.08,.82,1.61,1.24Z"/><path class="cls-1" d="M70.95,8.24l-.39,1.21-1.02,3.17-3.4,10.51-1.03,3.17-3.08,9.51-1.02,3.17-.43,1.34-.63,1.95-1.92,5.92-.63,1.95-1.97,6.08-.63,1.95-1.96,6.06-.63,1.94-1.87,5.79-.63,1.95-1.99,6.15-.63,1.94-2.06,6.36-.63,1.95-.05,.16c-.68,0-1.35-.03-2.02-.08l.63-1.94,5.3-16.4,2.43-7.51,.16-.48,2.51-7.74,2.6-8.03,2.53-7.82,.03-.1,.75-2.32,4.1-12.68h0l4.42-13.67,1.48-4.58c.57,.37,1.13,.75,1.68,1.14Z"/><path class="cls-1" d="M67.79,84.26c-.62,.37-1.25,.72-1.89,1.06l-16.18-11.42,.63-1.95,17.44,12.31Z"/><path class="cls-1" d="M63.86,4.12l-27.65,85.48c-.64-.13-1.28-.27-1.91-.43L62.07,3.34c.6,.25,1.2,.51,1.79,.78Z"/><path class="cls-1" d="M47.73,80.05l11.5,8.12c-.78,.26-1.57,.5-2.37,.72l-9.76-6.89,.63-1.94Z"/><path class="cls-1" d="M56.64,1.5L28.84,87.44c-.61-.23-1.21-.48-1.81-.75L54.74,1.03c.64,.14,1.27,.3,1.9,.47Z"/><path class="cls-1" d="M50.85,64.05l-.16,.48c0-.17,.06-.33,.16-.48Z"/><path class="cls-1" d="M48.54,.11L21.48,83.77c-.57-.36-1.14-.72-1.69-1.1L46.53,0c.68,.02,1.34,.06,2.01,.11Z"/><path class="cls-1" d="M47.91,90.37c-.95,.06-1.91,.09-2.87,.09-.13,0-.26,0-.39,0h0l-.23-.16,.63-1.95,2.87,2.03Z"/><path class="cls-1" d="M40.32,.22L14.9,78.81c-.54-.48-1.06-.98-1.57-1.49L38.18,.5h0c.71-.11,1.42-.2,2.14-.27Z"/><path class="cls-1" d="M31.46,2.08L8.82,72.08c-.49-.66-.95-1.33-1.4-2.01L29.15,2.88c.76-.29,1.53-.56,2.31-.8Z"/><path class="cls-1" d="M21.75,6.5l-1.51,4.67-5.14,15.88-7.7,23.82-3.86,11.93c-.4-.95-.77-1.92-1.11-2.9h0l.26-.81,.62-1.92,1.99-6.16,.62-1.93,2.03-6.27,.62-1.93,1.87-5.78,.62-1.93,1.93-5.98,.62-1.93,1.94-5.99,.62-1.92,1.95-6.04,.62-1.93,.38-1.17c.85-.6,1.71-1.17,2.6-1.71Z"/><path class="cls-1" d="M18.77,9.39l-.62,1.93-1.64-1.07c.53-.44,1.07-.86,1.62-1.28l.65,.42Z"/><path class="cls-1" d="M16.19,17.35l-.62,1.92-4.94-3.22c.42-.5,.85-1,1.3-1.48l4.26,2.78Z"/><path class="cls-1" d="M13.63,25.27l-.62,1.93-6.99-4.56c.32-.56,.66-1.12,1.01-1.67l6.6,4.3Z"/><path class="cls-1" d="M11.07,33.18l-.62,1.93-7.83-5.1c.22-.63,.46-1.25,.71-1.87l7.74,5.05Z"/><path class="cls-1" d="M8.58,40.89l-.62,1.93L.57,38c.11-.7,.24-1.4,.38-2.08l7.62,4.97Z"/><path class="cls-1" d="M5.93,49.09l-.62,1.93L.06,47.59c-.04-.79-.06-1.58-.06-2.37l5.93,3.87Z"/><path class="cls-1" d="M3.31,57.17l-.62,1.92-.66-.41c-.29-.91-.54-1.84-.77-2.78l2.05,1.27Z"/></g></g></svg>