<?xml version="1.0" encoding="UTF-8"?><svg id="Calque_2" xmlns="http://www.w3.org/2000/svg" viewBox="0 0 193.75 90.47"><defs><style>.cls-1{fill:#f39200;}</style></defs><g id="Calque_1-2"><g><path class="cls-1" d="M90.07,45.05v.17c0,.77-.02,1.53-.06,2.29l-9.46,6.9-1.68-1.19,11.2-8.17Z"/><path class="cls-1" d="M89.48,37.9l-15.91,11.58-1.68-1.19,17.2-12.52c.15,.7,.29,1.41,.4,2.13Z"/><path class="cls-1" d="M88.9,55.49c-.24,1.02-.51,2.02-.81,3.01h0l-.85,.62-1.69-1.19,3.35-2.44Z"/><path class="cls-1" d="M87.24,59.13l.53,.38c-.21,.65-.44,1.28-.68,1.91l-2.06-1.45s-.06-.05-.09-.07l-6.57-4.63h0s-.07-.05-.1-.08l-6.89-4.86h0s-.07-.05-.1-.08l-6.72-4.74h0s-.07-.05-.1-.08l-4.48-3.16,.63-1.95,4.47,3.16,1.68,1.19,5.15,3.63,1.68,1.19,5.3,3.74,1.68,1.19,4.99,3.52,1.69,1.19Z"/><path class="cls-1" d="M86.58,27.76c.26,.62,.51,1.25,.74,1.88l-20.58,15.02-1.68-1.19,21.53-15.71Z"/><path class="cls-1" d="M84.56,66.9c-.31,.57-.64,1.14-.97,1.7l-26.18-18.47,.63-1.95,26.52,18.72Z"/><path class="cls-1" d="M83.85,22.3l-22.84,16.67,1.02-3.17,20.79-15.17c.36,.55,.7,1.1,1.03,1.67Z"/><path class="cls-1" d="M80.08,73.6c-.41,.51-.83,1.01-1.26,1.5l-24.01-16.95,.63-1.95,24.65,17.4Z"/><path class="cls-1" d="M78.02,14.45c.44,.48,.88,.97,1.3,1.47l-14.21,10.37,1.03-3.17,11.88-8.68Z"/><path class="cls-1" d="M74.5,79.41c-.51,.44-1.03,.88-1.56,1.29l-20.72-14.54,.63-1.94,21.66,15.19Z"/><path class="cls-1" d="M73.2,9.94l-3.66,2.67,1.02-3.17,1.03-.75c.55,.4,1.08,.82,1.61,1.24Z"/><path class="cls-1" d="M70.95,8.24l-.39,1.21-1.02,3.17-3.4,10.51-1.03,3.17-3.08,9.51-1.02,3.17-.43,1.34-.63,1.95-1.92,5.92-.63,1.95-1.97,6.08-.63,1.95-1.96,6.06-.63,1.94-1.87,5.79-.63,1.95-1.99,6.15-.63,1.94-2.06,6.36-.63,1.95-.05,.16c-.68,0-1.35-.03-2.02-.08l.63-1.94,5.3-16.4,2.43-7.51,.16-.48,2.51-7.74,2.6-8.03,2.53-7.82,.03-.1,.75-2.32,4.1-12.68h0l4.42-13.67,1.48-4.58c.57,.37,1.13,.75,1.68,1.14Z"/><path class="cls-1" d="M67.79,84.26c-.62,.37-1.25,.72-1.89,1.06l-16.18-11.42,.63-1.95,17.44,12.31Z"/><path class="cls-1" d="M63.86,4.12l-27.65,85.48c-.64-.13-1.28-.27-1.91-.43L62.07,3.34c.6,.25,1.2,.51,1.79,.78Z"/><path class="cls-1" d="M47.73,80.05l11.5,8.12c-.78,.26-1.57,.5-2.37,.72l-9.76-6.89,.63-1.94Z"/><path class="cls-1" d="M56.64,1.5L28.84,87.44c-.61-.23-1.21-.48-1.81-.75L54.74,1.03c.64,.14,1.27,.3,1.9,.47Z"/><path class="cls-1" d="M50.85,64.05l-.16,.48c0-.17,.06-.33,.16-.48Z"/><path class="cls-1" d="M48.54,.11L21.48,83.77c-.57-.36-1.14-.72-1.69-1.1L46.53,0c.68,.02,1.34,.06,2.01,.11Z"/><path class="cls-1" d="M47.91,90.37c-.95,.06-1.91,.09-2.87,.09-.13,0-.26,0-.39,0h0l-.23-.16,.63-1.95,2.87,2.03Z"/><path class="cls-1" d="M40.32,.22L14.9,78.81c-.54-.48-1.06-.98-1.57-1.49L38.18,.5h0c.71-.11,1.42-.2,2.14-.27Z"/><path class="cls-1" d="M31.46,2.08L8.82,72.08c-.49-.66-.95-1.33-1.4-2.01L29.15,2.88c.76-.29,1.53-.56,2.31-.8Z"/><path class="cls-1" d="M21.75,6.5l-1.51,4.67-5.14,15.88-7.7,23.82-3.86,11.93c-.4-.95-.77-1.92-1.11-2.9h0l.26-.81,.62-1.92,1.99-6.16,.62-1.93,2.03-6.27,.62-1.93,1.87-5.78,.62-1.93,1.93-5.98,.62-1.93,1.94-5.99,.62-1.92,1.95-6.04,.62-1.93,.38-1.17c.85-.6,1.71-1.17,2.6-1.71Z"/><path class="cls-1" d="M18.77,9.39l-.62,1.93-1.64-1.07c.53-.44,1.07-.86,1.62-1.28l.65,.42Z"/><path class="cls-1" d="M16.19,17.35l-.62,1.92-4.94-3.22c.42-.5,.85-1,1.3-1.48l4.26,2.78Z"/><path class="cls-1" d="M13.63,25.27l-.62,1.93-6.99-4.56c.32-.56,.66-1.12,1.01-1.67l6.6,4.3Z"/><path class="cls-1" d="M11.07,33.18l-.62,1.93-7.83-5.1c.22-.63,.46-1.25,.71-1.87l7.74,5.05Z"/><path class="cls-1" d="M8.58,40.89l-.62,1.93L.57,38c.11-.7,.24-1.4,.38-2.08l7.62,4.97Z"/><path class="cls-1" d="M5.93,49.09l-.62,1.93L.06,47.59c-.04-.79-.06-1.58-.06-2.37l5.93,3.87Z"/><path class="cls-1" d="M3.31,57.17l-.62,1.92-.66-.41c-.29-.91-.54-1.84-.77-2.78l2.05,1.27Z"/></g><g><g><path class="cls-1" d="M133.08,54.12c-.41-.83-.65-1.76-.71-2.8-.06-1.04,0-2.1,.17-3.19,.17-1.09,.41-2.16,.72-3.22,.31-1.05,.63-2.01,.95-2.86,.27-.69,.51-1.37,.75-2.03,.24-.66,.45-1.34,.64-2.03,.19-.69,.36-1.41,.5-2.14,.14-.74,.25-1.52,.34-2.36,.06-.56,.05-1.05-.03-1.48-.08-.43-.24-.74-.49-.95-.24-.21-.57-.29-.99-.25-.42,.04-.95,.24-1.58,.61-.81,.46-1.61,1.06-2.39,1.8-.79,.74-1.55,1.57-2.28,2.49-.74,.91-1.43,1.89-2.1,2.92s-1.27,2.06-1.81,3.09c-.26,.5-.53,1.02-.81,1.55-.27,.53-.52,1.08-.75,1.65-.23,.57-.43,1.14-.6,1.71s-.28,1.16-.32,1.75c-.03,.43-.12,.78-.28,1.05-.15,.27-.32,.43-.5,.49-.18,.05-.33-.03-.46-.24-.13-.21-.18-.59-.15-1.12,.06-.94,.26-2.07,.61-3.39,.35-1.32,.75-2.75,1.23-4.3,.38-1.24,.78-2.53,1.19-3.87,.41-1.34,.8-2.68,1.17-4.02,.37-1.34,.69-2.67,.96-3.98,.27-1.31,.46-2.56,.56-3.73,.09-1.02,.1-1.85,.04-2.49-.06-.64-.18-1.14-.36-1.5-.18-.36-.42-.6-.71-.73-.29-.13-.61-.18-.98-.17-.49,.03-1.03,.18-1.64,.46-.61,.28-1.25,.68-1.91,1.19s-1.34,1.13-2.02,1.86c-.68,.72-1.35,1.53-2,2.43-1.27,1.77-2.49,3.68-3.69,5.72s-2.29,4.15-3.29,6.32c-1,2.17-1.88,4.34-2.63,6.53s-1.31,4.31-1.68,6.35c-.22,1.25-.38,2.43-.49,3.52-.1,1.1-.13,2.08-.09,2.95,.04,.87,.18,1.6,.4,2.2,.22,.6,.54,1.02,.95,1.27,.27,.15,.38,.33,.34,.54-.04,.21-.15,.39-.34,.52-.19,.13-.43,.18-.72,.15-.29-.03-.56-.21-.83-.55-.27-.35-.46-.89-.57-1.61-.12-.72-.17-1.58-.17-2.57,0-.99,.07-2.1,.18-3.33,.11-1.22,.27-2.5,.47-3.85,.34-2.3,.86-4.66,1.58-7.09,.71-2.43,1.57-4.81,2.58-7.14,1.01-2.33,2.14-4.54,3.41-6.65,1.27-2.11,2.62-4,4.06-5.68,.74-.85,1.5-1.62,2.3-2.31,.79-.69,1.57-1.26,2.34-1.72,.77-.46,1.5-.79,2.22-.98,.71-.19,1.36-.22,1.93-.09,.41,.1,.78,.29,1.1,.57,.32,.28,.59,.66,.79,1.15,.21,.49,.35,1.08,.43,1.78,.08,.7,.08,1.52-.01,2.46-.12,1.31-.32,2.66-.61,4.05-.29,1.39-.61,2.79-.98,4.19-.37,1.4-.75,2.79-1.16,4.17-.4,1.38-.78,2.71-1.14,3.99,.6-1.09,1.28-2.19,2.04-3.29,.76-1.1,1.56-2.14,2.39-3.12s1.71-1.85,2.6-2.63c.9-.78,1.79-1.39,2.67-1.83,.84-.41,1.61-.66,2.33-.75,.71-.09,1.31,0,1.78,.27,.47,.27,.78,.72,.94,1.37,.15,.65,.08,1.49-.21,2.52-.35,1.33-.81,2.68-1.37,4.08-.56,1.39-1.16,2.91-1.79,4.56-.19,.47-.39,1.01-.59,1.61-.2,.6-.38,1.25-.53,1.92-.15,.68-.28,1.37-.36,2.07s-.11,1.38-.08,2.06c.04,.67,.15,1.3,.35,1.89,.2,.59,.5,1.11,.92,1.57,.32,.37,.46,.72,.42,1.06-.04,.34-.19,.58-.43,.72-.24,.14-.53,.14-.87,0-.34-.14-.63-.51-.88-1.12Z"/><path class="cls-1" d="M143.44,39.67c-.16,.13-.37,.37-.63,.71-.26,.34-.55,.71-.87,1.13-.32,.41-.68,.83-1.06,1.25-.38,.42-.78,.78-1.18,1.08-.4,.3-.82,.51-1.24,.63-.42,.12-.83,.07-1.23-.13-.35-.18-.59-.48-.7-.91-.11-.43-.14-.87-.08-1.33,.1-.91,.39-1.76,.87-2.54,.48-.78,1.07-1.45,1.79-2s1.51-.96,2.4-1.23c.88-.27,1.79-.33,2.71-.2,.56,.07,1.08,.25,1.57,.52,.49,.27,.85,.67,1.1,1.2,.12,.25,.14,.45,.07,.6-.07,.15-.19,.24-.34,.27-.15,.03-.32-.01-.51-.12s-.33-.3-.43-.56c-.21-.38-.46-.67-.77-.87-.31-.2-.64-.31-.99-.34-.46-.04-.92,.04-1.39,.25-.47,.21-.92,.51-1.35,.88-.43,.38-.82,.81-1.17,1.29-.35,.49-.63,.98-.84,1.48-.04,.1-.1,.24-.17,.42-.07,.18-.12,.36-.17,.56-.04,.2-.07,.39-.08,.57,0,.18,.03,.33,.1,.43,.06,.09,.2,.06,.43-.09,.23-.15,.5-.36,.81-.63,.31-.27,.64-.59,.98-.94,.35-.35,.68-.69,.99-1.02,.32-.32,.59-.61,.83-.86,.24-.25,.39-.41,.46-.49,.26-.25,.53-.42,.79-.5,.27-.08,.5-.09,.7-.03,.2,.06,.35,.18,.44,.35,.1,.18,.11,.38,.03,.62-.25,.75-.4,1.4-.46,1.94-.06,.55-.04,1,.04,1.36,.09,.36,.24,.64,.46,.85,.22,.21,.49,.35,.79,.42,.53,.12,1.16,.07,1.89-.14,.73-.21,1.46-.53,2.21-.94,.74-.41,1.45-.88,2.11-1.39,.66-.52,1.19-1.01,1.59-1.48,.15-.21,.31-.34,.49-.4,.18-.06,.32-.06,.43,0,.11,.06,.16,.17,.14,.34-.01,.17-.13,.37-.35,.61-.49,.57-1.07,1.14-1.75,1.7-.68,.56-1.42,1.05-2.22,1.46-.79,.41-1.62,.73-2.46,.95-.85,.22-1.67,.29-2.48,.2-.66-.06-1.21-.24-1.66-.54-.44-.3-.76-.68-.96-1.13-.2-.45-.28-.96-.23-1.52,.04-.57,.22-1.15,.53-1.76Z"/><path class="cls-1" d="M160.59,40.11c.07-.37,.08-.53,.02-.49-.06,.04-.16,.18-.31,.4-.26,.38-.57,.85-.93,1.39-.35,.55-.71,1.08-1.08,1.61-.26,.4-.54,.77-.84,1.1-.29,.34-.6,.62-.92,.85-.32,.23-.65,.38-.99,.45s-.72,.04-1.11-.11c-.31-.12-.55-.33-.72-.63-.17-.3-.28-.64-.34-1.01-.06-.37-.08-.74-.06-1.1,.02-.37,.06-.69,.12-.95,.1-.49,.23-.97,.39-1.46,.15-.49,.32-.94,.5-1.36,.18-.42,.36-.8,.55-1.13,.19-.33,.37-.59,.53-.76,.21-.25,.43-.4,.66-.46,.24-.06,.45-.04,.65,.07,.2,.1,.35,.27,.45,.5,.1,.23,.12,.5,.07,.83-.07,.25-.22,.59-.44,1.01s-.46,.89-.71,1.4c-.25,.52-.48,1.06-.68,1.62-.21,.57-.32,1.12-.35,1.67-.04,.24-.04,.4,.01,.5,.05,.1,.13,.14,.23,.14s.22-.04,.36-.12c.14-.08,.27-.17,.39-.28,.31-.25,.67-.59,1.08-1.03,.41-.43,.82-.89,1.24-1.38,.41-.49,.81-.97,1.18-1.46,.38-.49,.68-.92,.92-1.3,.06-.09,.15-.18,.28-.27,.12-.09,.25-.13,.36-.13s.22,.06,.31,.18c.09,.12,.13,.32,.13,.62-.01,.62-.07,1.46-.18,2.53-.1,1.07-.27,2.27-.51,3.61,.66-.59,1.37-1.16,2.13-1.71,.76-.55,1.53-1.06,2.33-1.54,.79-.47,1.58-.89,2.36-1.26,.78-.37,1.52-.67,2.23-.91,.35-.13,.6-.17,.74-.12,.14,.05,.21,.14,.21,.27s-.05,.25-.15,.39c-.1,.13-.22,.21-.35,.24-.75,.18-1.56,.47-2.43,.88-.87,.41-1.74,.9-2.62,1.45-.88,.55-1.72,1.16-2.53,1.82-.81,.66-1.54,1.33-2.19,1.99-.26,1.4-.6,2.85-1,4.35-.4,1.5-.88,2.96-1.43,4.38-.55,1.41-1.18,2.74-1.9,3.98-.71,1.24-1.52,2.28-2.42,3.14-.37,.35-.76,.61-1.18,.76-.42,.15-.79,.18-1.11,.09-.32-.1-.57-.34-.74-.72-.17-.38-.19-.94-.06-1.66,.12-.65,.34-1.37,.67-2.17,.33-.8,.73-1.62,1.2-2.49,.47-.86,.99-1.73,1.55-2.62,.56-.88,1.13-1.74,1.7-2.56,.57-.83,1.13-1.6,1.67-2.31,.54-.71,1.01-1.33,1.42-1.85,.18-.59,.35-1.21,.52-1.87,.17-.66,.32-1.3,.46-1.93,.14-.63,.26-1.22,.37-1.76,.11-.54,.2-.98,.28-1.34Zm-6.22,17.99c.71-1.13,1.37-2.43,2-3.89s1.2-2.93,1.71-4.42c-.41,.59-.84,1.22-1.28,1.88s-.87,1.34-1.29,2.02-.82,1.37-1.21,2.06c-.39,.69-.75,1.34-1.07,1.98-.46,.9-.75,1.57-.87,2.02-.12,.45-.12,.69,.01,.71,.13,.02,.38-.17,.73-.56,.35-.4,.78-.99,1.28-1.79Z"/><path class="cls-1" d="M172,39.05c-.18,.37-.41,.94-.7,1.72-.29,.78-.58,1.65-.87,2.62-.29,.96-.56,1.97-.78,3.02-.23,1.05-.37,2.01-.42,2.91-.05,.89,.02,1.65,.21,2.29,.19,.63,.57,1.02,1.13,1.17,.37,.1,.79,.04,1.27-.19,.48-.23,.99-.57,1.53-1.04,.54-.46,1.1-1.03,1.68-1.69s1.15-1.37,1.72-2.12,1.13-1.53,1.66-2.34c.53-.81,1.02-1.6,1.48-2.36,.34-.57,.67-1.14,1-1.69,.33-.55,.67-1.08,1-1.58,.16-.27,.32-.43,.49-.5,.16-.07,.29-.06,.38,.01,.09,.07,.12,.21,.11,.41-.01,.2-.12,.43-.31,.7-.37,.56-.74,1.15-1.1,1.76-.37,.61-.74,1.23-1.13,1.87-.69,1.16-1.48,2.32-2.35,3.46-.88,1.14-1.77,2.16-2.69,3.06-.92,.9-1.81,1.61-2.67,2.13-.86,.52-1.62,.75-2.26,.67-.59-.07-1.06-.3-1.4-.67-.35-.38-.59-.86-.74-1.46-.15-.6-.21-1.27-.19-2.03,.02-.76,.09-1.56,.21-2.4,.12-.84,.28-1.69,.47-2.55,.2-.86,.41-1.69,.63-2.49,.32-1.22,.68-2.46,1.07-3.71,.39-1.25,.8-2.48,1.23-3.68,.43-1.2,.87-2.35,1.32-3.46,.46-1.1,.92-2.12,1.39-3.06,.47-.94,.94-1.77,1.4-2.5s.92-1.32,1.36-1.78c.37-.37,.76-.63,1.17-.78,.41-.15,.78-.18,1.11-.08,.33,.1,.58,.35,.75,.73,.17,.38,.19,.94,.06,1.66-.12,.65-.33,1.36-.65,2.12-.32,.77-.7,1.56-1.14,2.39-.44,.83-.93,1.66-1.48,2.52-.54,.85-1.1,1.69-1.68,2.52-.57,.83-1.14,1.61-1.7,2.36-.56,.75-1.08,1.44-1.57,2.08Zm4.59-11.09c-.71,1.13-1.37,2.43-2,3.89-.63,1.46-1.2,2.93-1.71,4.42,.41-.59,.84-1.22,1.28-1.88s.87-1.34,1.29-2.02c.42-.69,.82-1.37,1.21-2.04,.39-.68,.75-1.34,1.07-1.99,.46-.9,.75-1.57,.87-2.02,.12-.45,.12-.69-.01-.71-.13-.02-.38,.17-.73,.56-.35,.4-.78,.99-1.28,1.79Z"/><path class="cls-1" d="M180.98,44.88c-.15-.29-.24-.62-.28-.98-.04-.36-.04-.73,0-1.09s.11-.73,.22-1.09c.11-.36,.24-.7,.39-1.01,.28-.57,.64-1.1,1.09-1.57,.45-.47,.95-.85,1.51-1.15,.56-.29,1.16-.49,1.81-.57,.65-.09,1.31-.04,1.99,.15,.19,.13,.28,.27,.28,.42,0,.15-.07,.27-.2,.36-.13,.1-.29,.15-.5,.15-.21,0-.4-.06-.6-.19-.44-.22-.84-.28-1.19-.19-.35,.1-.67,.29-.96,.6-.29,.3-.53,.68-.74,1.13-.21,.45-.37,.92-.5,1.4-.13,.49-.22,.96-.28,1.41-.06,.46-.08,.84-.07,1.15,.03,.38,.15,.62,.38,.7,.22,.08,.49-.03,.79-.34,.19-.19,.38-.44,.55-.74,.18-.3,.33-.61,.45-.94,.12-.32,.23-.63,.31-.92,.08-.29,.13-.52,.14-.7-.46-.15-.77-.33-.95-.54-.18-.21-.26-.42-.24-.63,.01-.21,.1-.38,.24-.53,.15-.15,.32-.23,.51-.24,.19-.01,.38,.07,.57,.24,.19,.18,.34,.49,.44,.93,.47,.07,.98,.11,1.53,.12,.55,0,1.11,0,1.67-.03,.56-.03,1.11-.08,1.64-.15,.54-.07,1.03-.17,1.49-.29,.51-.13,.86-.17,1.03-.1,.17,.07,.24,.17,.21,.3-.03,.13-.13,.27-.3,.42-.17,.15-.33,.24-.47,.27-.47,.12-.98,.22-1.53,.3-.55,.08-1.12,.14-1.71,.17-.59,.03-1.17,.04-1.75,.02-.58-.01-1.13-.06-1.64-.13,0,.32-.04,.67-.12,1.05-.08,.38-.19,.75-.33,1.13-.14,.38-.32,.74-.53,1.08-.21,.35-.46,.64-.74,.89-.24,.22-.53,.4-.87,.54-.35,.14-.69,.21-1.04,.21s-.67-.08-.98-.24-.55-.42-.73-.77Z"/></g><g><path class="cls-1" d="M109.03,56.95h1v5.1h-1v-5.1Zm3.05,2.01c0-.36-.09-.64-.27-.84s-.43-.29-.75-.29-.58,.09-.76,.26-.27,.42-.27,.73l-.1-.98c.16-.31,.36-.55,.62-.71s.53-.25,.84-.25c.36,0,.66,.08,.91,.24s.44,.4,.58,.71,.2,.69,.2,1.13v3.1h-1v-3.09Zm3.05,0c0-.36-.09-.64-.28-.84s-.45-.29-.79-.29c-.31,0-.55,.1-.72,.29s-.26,.46-.26,.81l-.2-.98c.16-.34,.37-.6,.64-.78s.55-.28,.87-.28c.37,0,.68,.08,.94,.24s.46,.4,.59,.71,.2,.69,.2,1.13v3.1h-1v-3.09Z"/><path class="cls-1" d="M117.87,61.73c-.31-.26-.47-.66-.47-1.19s.14-.88,.43-1.14,.72-.38,1.29-.38h1.45l.07,.81h-1.51c-.26,0-.46,.06-.59,.17s-.19,.29-.19,.53c0,.26,.09,.45,.26,.57s.43,.19,.78,.19c.38,0,.67-.04,.86-.12s.28-.21,.28-.38l.1,.72c-.09,.14-.2,.25-.33,.34s-.28,.15-.45,.2-.36,.07-.57,.07c-.63,0-1.1-.13-1.41-.39Zm2.66-2.92c0-.33-.09-.59-.27-.78s-.43-.28-.76-.28c-.2,0-.4,.03-.6,.09s-.37,.15-.52,.26l-.73-.5c.19-.23,.45-.41,.76-.54s.67-.19,1.05-.19c.42,0,.78,.07,1.09,.22s.53,.37,.69,.65,.24,.62,.24,1.02v3.28h-.95v-3.23Z"/><path class="cls-1" d="M123.67,61.9c-.26-.16-.46-.4-.6-.71s-.21-.68-.21-1.12v-1.13c0-.44,.07-.81,.2-1.13s.33-.55,.59-.71,.57-.24,.93-.24c.3,0,.58,.08,.83,.24s.45,.38,.61,.66l-.1,1.04c0-.22-.04-.4-.12-.56s-.19-.27-.34-.35-.33-.12-.54-.12c-.33,0-.59,.1-.77,.31s-.27,.5-.27,.87v1.11c0,.37,.09,.66,.27,.86s.44,.3,.77,.3c.21,0,.39-.04,.54-.13s.26-.2,.34-.36,.12-.35,.12-.57l.07,1.08c-.1,.25-.27,.46-.5,.63s-.52,.26-.85,.26c-.37,0-.69-.08-.96-.24Zm2.24-6.99h1v7.15h-1v-7.15Z"/><path class="cls-1" d="M129.31,61.86c-.33-.18-.59-.44-.76-.78s-.26-.76-.26-1.24v-.57c0-.5,.08-.94,.25-1.29s.41-.63,.73-.82,.71-.28,1.16-.28c.43,0,.79,.11,1.09,.32s.53,.52,.69,.92,.24,.89,.24,1.45v.33h-3.44v-.81h2.49c-.03-.42-.14-.74-.32-.97s-.43-.35-.74-.35c-.38,0-.67,.12-.88,.37s-.31,.6-.31,1.06v.65c0,.42,.11,.75,.33,.97s.54,.34,.95,.34c.2,0,.4-.04,.6-.12s.38-.2,.54-.34l.66,.66c-.25,.24-.54,.43-.85,.56s-.63,.2-.95,.2c-.47,0-.87-.09-1.21-.27Z"/><path class="cls-1" d="M109.03,64.51h1.02l1.57,4.43-.56,1.09-2.03-5.52Zm4.52,0l-2.17,6.29c-.08,.23-.18,.42-.31,.55s-.29,.23-.47,.29-.42,.09-.69,.09h-.2v-.96h.2c.19,0,.33-.04,.44-.11s.21-.2,.29-.39l1.89-5.76h1.02Z"/><path class="cls-1" d="M115.15,69.43c-.31-.17-.55-.43-.72-.76s-.25-.73-.25-1.2v-.83c0-.46,.08-.86,.25-1.19s.41-.58,.72-.75,.69-.26,1.14-.26,.82,.09,1.14,.26,.55,.42,.72,.75,.25,.72,.25,1.19v.85c0,.47-.08,.86-.25,1.19s-.41,.58-.72,.75-.69,.26-1.14,.26-.82-.09-1.14-.26Zm1.95-1.02c.19-.22,.29-.53,.29-.92v-.85c0-.4-.1-.7-.29-.92s-.46-.32-.81-.32-.62,.11-.81,.32-.29,.52-.29,.92v.85c0,.4,.1,.7,.29,.92s.46,.33,.81,.33,.62-.11,.81-.33Z"/><path class="cls-1" d="M120.69,67.61c0,.36,.09,.63,.27,.83s.44,.29,.77,.29,.58-.09,.76-.26,.27-.42,.27-.74l.07,1.07c-.1,.25-.28,.46-.51,.63s-.53,.26-.87,.26c-.56,0-1-.18-1.3-.54s-.46-.87-.46-1.53v-3.1h1v3.1Zm2.07-3.1h1v5.1h-1v-5.1Z"/><path class="cls-1" d="M125.29,64.51h1v5.1h-1v-5.1Zm2.47,.96c-.13-.06-.29-.08-.47-.08-.32,0-.56,.09-.74,.26s-.26,.42-.26,.73l-.1-.98c.16-.3,.36-.54,.61-.71s.52-.25,.83-.25c.23,0,.44,.03,.63,.1s.35,.17,.49,.3l-.65,.88c-.09-.11-.2-.19-.33-.25Z"/><path class="cls-1" d="M133.29,68.3c0,.12,.03,.22,.08,.29s.13,.1,.23,.1h.47v.95h-.59c-.38,0-.67-.12-.88-.35s-.31-.57-.31-1v-5.82h1v5.83Z"/><path class="cls-1" d="M136.02,69.43c-.31-.17-.55-.43-.72-.76s-.25-.73-.25-1.2v-.83c0-.46,.08-.86,.25-1.19s.41-.58,.72-.75,.69-.26,1.14-.26,.82,.09,1.14,.26,.55,.42,.72,.75,.25,.72,.25,1.19v.85c0,.47-.08,.86-.25,1.19s-.41,.58-.72,.75-.69,.26-1.14,.26-.82-.09-1.14-.26Zm1.95-1.02c.19-.22,.29-.53,.29-.92v-.85c0-.4-.1-.7-.29-.92s-.46-.32-.81-.32-.62,.11-.81,.32-.29,.52-.29,.92v.85c0,.4,.1,.7,.29,.92s.46,.33,.81,.33,.62-.11,.81-.33Z"/><path class="cls-1" d="M141.51,69.43c-.31-.17-.55-.43-.72-.76s-.25-.73-.25-1.2v-.83c0-.46,.08-.86,.25-1.19s.41-.58,.72-.75,.69-.26,1.14-.26,.82,.09,1.14,.26,.55,.42,.72,.75,.25,.72,.25,1.19v.85c0,.47-.08,.86-.25,1.19s-.41,.58-.72,.75-.69,.26-1.14,.26-.82-.09-1.14-.26Zm1.95-1.02c.19-.22,.29-.53,.29-.92v-.85c0-.4-.1-.7-.29-.92s-.46-.32-.81-.32-.62,.11-.81,.32-.29,.52-.29,.92v.85c0,.4,.1,.7,.29,.92s.46,.33,.81,.33,.62-.11,.81-.33Z"/><path class="cls-1" d="M146.17,62.47h1v7.15h-1v-7.15Zm.43,5.21l2.62-3.16h1.18l-3.87,4.35,.06-1.19Zm1.18-1.01l.64-.67,2.23,3.61h-1.09l-1.78-2.94Z"/></g></g></g></svg>