<?xml version="1.0" encoding="UTF-8"?>
<svg id="Calque_2" data-name="Calque 2" xmlns="http://www.w3.org/2000/svg" viewBox="0 0 130.55 22.44">
  <defs>
    <style>
      .cls-1 {
        stroke-miterlimit: 10;
        stroke-width: .95px;
      }

      .cls-1, .cls-2, .cls-3 {
        fill: none;
        stroke: #000;
      }

      .cls-2, .cls-3 {
        stroke-linecap: round;
        stroke-linejoin: round;
      }

      .cls-3 {
        stroke-width: .95px;
      }
    </style>
  </defs>
  <g id="Calque_5" data-name="Calque 5">
    <g>
      <circle class="cls-1" cx="11.21" cy="11.21" r="10.73"/>
      <polygon class="cls-3" points="7.19 15.51 9.6 9.51 15.68 6.72 13.08 12.5 7.19 15.51"/>
      <path class="cls-2" d="m74.51,4.01c-2.13-2.13-5.59-2.13-7.72,0l-1.38,1.38-1.38-1.38c-2.13-2.13-5.59-2.13-7.72,0s-2.13,5.59,0,7.72l1.38,1.38h0s7.72,7.73,7.72,7.73h0s0,0,0,0l7.72-7.72h0s1.38-1.39,1.38-1.39c2.13-2.13,2.13-5.59,0-7.72Z"/>
      <path class="cls-2" d="m130.05,21.94v-1.99c0-2.38-1.93-4.32-4.32-4.32h-12.67c-2.38,0-4.32,1.93-4.32,4.32v1.99"/>
      <circle class="cls-2" cx="119.4" cy="7.05" r="5.57"/>
    </g>
  </g>
</svg>