<?xml version="1.0" encoding="UTF-8"?>
<svg id="Calque_2" data-name="Calque 2" xmlns="http://www.w3.org/2000/svg" viewBox="0 0 30.53 30.53">
  <defs>
    <style>
      .cls-1 {
        stroke-width: 0px;
      }
    </style>
  </defs>
  <g id="Calque_5" data-name="Calque 5">
    <g>
      <path class="cls-1" d="m21.73,0h-12.92C3.95,0,0,3.95,0,8.8v12.92c0,4.85,3.95,8.8,8.8,8.8h12.92c4.85,0,8.8-3.95,8.8-8.8v-12.92c0-4.85-3.95-8.8-8.8-8.8Zm5.63,21.73c0,3.11-2.53,5.63-5.63,5.63h-12.92c-3.11,0-5.63-2.53-5.63-5.63v-12.92c0-3.11,2.53-5.63,5.63-5.63h12.92c3.11,0,5.63,2.53,5.63,5.63v12.92Z"/>
      <path class="cls-1" d="m14.74,7.71c-4.3,0-7.8,3.5-7.8,7.8s3.5,7.8,7.8,7.8,7.8-3.5,7.8-7.8-3.5-7.8-7.8-7.8Zm0,12.43c-2.55,0-4.63-2.08-4.63-4.63s2.08-4.63,4.63-4.63,4.63,2.08,4.63,4.63-2.08,4.63-4.63,4.63Z"/>
      <circle class="cls-1" cx="22.6" cy="7.3" r="1.44"/>
    </g>
  </g>
</svg>