<?xml version="1.0" encoding="UTF-8"?>
<svg id="Calque_2" data-name="Calque 2" xmlns="http://www.w3.org/2000/svg" viewBox="0 0 417.2 88.73">
  <defs>
    <style>
      .cls-1 {
        fill: none;
        stroke: #000;
        stroke-linecap: round;
        stroke-miterlimit: 10;
        stroke-width: 5.15px;
      }

      .cls-2 {
        stroke-width: 0px;
      }
    </style>
  </defs>
  <g id="Calque_7" data-name="Calque 7">
    <g>
      <path class="cls-2" d="m55.12,2.57H22.33C10.02,2.57,0,12.59,0,24.91v32.78c0,12.32,10.02,22.33,22.33,22.33h32.78c12.32,0,22.33-10.02,22.33-22.33V24.91c0-12.32-10.02-22.33-22.33-22.33Zm14.29,55.12c0,7.88-6.41,14.29-14.29,14.29H22.33c-7.88,0-14.29-6.41-14.29-14.29V24.91c0-7.88,6.41-14.29,14.29-14.29h32.78c7.88,0,14.29,6.41,14.29,14.29v32.78Z"/>
      <path class="cls-2" d="m37.39,22.12c-10.91,0-19.78,8.88-19.78,19.78s8.88,19.78,19.78,19.78,19.78-8.88,19.78-19.78-8.88-19.78-19.78-19.78Zm0,31.52c-6.47,0-11.74-5.27-11.74-11.74s5.27-11.74,11.74-11.74,11.74,5.27,11.74,11.74-5.27,11.74-11.74,11.74Z"/>
      <circle class="cls-2" cx="57.34" cy="21.1" r="3.65"/>
    </g>
    <line class="cls-1" x1="96.72" y1="2.57" x2="96.72" y2="80.25"/>
    <g>
      <path class="cls-2" d="m333.8,46.28c-1.39-1.2-1.95-3.07-2.23-4.82-.33-2.05-.44-4.13-.81-6.17-.28-1.55-1.49-3.04-3.19-2.39-1.7.65-3.19,2.2-4.25,3.62-2.68,3.58-4.53,7.87-5.86,12.09-.2.65-.4,1.32-.58,2-.01-.32-.04-.63-.05-.95-.11-4.16.18-8.29.83-11.97.39-2.23-.6-4.78-3.03-5.33-2.1-.48-4.92.64-5.33,3.03-.71,4.12-1.1,8.29-1.1,12.46-1.22,1.16-2.45,2.16-3.72,3.3-.6.54-1.21,1.07-1.82,1.6.13-.11-.43-1.57-.49-1.76-.86-2.66-2.25-8.24-6.33-6.44-1.12.49-1.73,1.35-1.94,2.38,0,0,0,0,0,0-.42,1.81-1.21,4.31-1.7,6.05-1.61,5.66-4.54,8.03-5.75,5.9-.99-1.74-.42-4.83-.31-6.74.18-3.18.63-6.36,1.29-9.48.3-1.43.88-4.14,2.82-4.18.66-.01,1.98,1.31,2.36,2.11.42.89,1.65,1.17,2.49.82.99-.42,1.3-1.35,1.17-2.36-.57-4.08-5.55-6.66-9.42-5.81-4.97,1.09-7.23,6.53-8.3,10.94-.53,2.15-.78,4.37-.94,6.58-.01.05-.03.11-.04.15-.51,1.58-1.02,3.15-1.58,4.71-.61,1.7-1.34,3.54-2.86,4.63-2.92,2.09-3.05-3.91-3.14-5.4-.12-1.99-.05-3.99.07-5.97.22-3.51.7-7,1.42-10.45.47-2.21-.66-4.79-3.03-5.33-2.17-.5-4.84.66-5.33,3.03-.04.21-.08.42-.12.62-1.7-2.7-5.48-4.2-8.55-3.52-4.98,1.09-7.24,6.53-8.32,10.94-.65,2.66-.88,5.43-1.03,8.16-1.2,2.78-2.65,5.76-5.05,7.62-.63.49-2.04,1.39-2.59.17-.53-1.17-.41-2.54-.43-3.79-.11-7.25-.52-14.47-.12-21.73.15-2.8.49-5.59.66-8.39,0-.12.02-.25.02-.38,5.32-.81,10.94-2.34,15.6-4.87,1.69-.93.42-3.1-1.21-2.87-2.8.38-5.45,1.31-8.19,1.99-2.02.5-4.08.95-6.15,1.29-.14-1.44-.53-2.79-1.44-3.76-.88-.92-2.33-1.03-3.41-.44-1.6.87-2.5,2.83-3.05,4.94-3.12.06-6.27-.21-9.12-1.08-1.54-.47-2.64,1.96-1.12,2.65,3.13,1.41,6.27,2.23,9.5,2.53-.05.37-.09.72-.12,1.04-.41,3.48-.64,6.99-.77,10.5-.12,3.09-.22,6.29-.16,9.49-2.41.53-4.61,1.69-6.85,3.1-.03.02-1.81-1.44-2.01-1.6-2.48-1.94-4.67-4.4-4.92-7.68-.07-.96-.05-2.46.74-3.16.71-.63,1.26-.03,1.59.64.41.82.49,1.62,1.38,2.1.72.39,1.64.42,2.36.03.72-.39,1.07-1.15,1.06-1.95-.01-2.53-1.02-4.81-3.39-5.93-2.29-1.09-4.84-.71-6.93.61-2.72,1.7-3.83,5.11-4.05,8.16-.14,1.79.17,3.69.8,5.46-1.46-.1-3.18-.02-4.61.1-.24.02-.48.05-.72.07.06-3.53-.26-7.28-2.22-10.23-1.33-2.01-3.43-3.91-5.89-4.31-2.59-.42-4.84,1.31-6.39,3.23-2,2.46-3.57,5.55-4.85,8.61,0-.12,0-.23,0-.35.28-6.85.72-13.7,1.08-20.55.22-4.19-6.4-5.1-7.34-.99-1.62,7.03-2.12,14.35-2.4,21.54-.07,1.87-.11,3.74-.11,5.62-.16.29-.33.57-.52.81-.65.86-1.4,1.66-2.28,2.3-.76.55-1.58.88-2.41.99.28-1.48.45-2.98.51-4.49.16-4.44-.31-9.37-2.97-13.09-1.5-2.11-4.36-3.54-6.95-3.38-1.84.1-3.51.86-4.73,2.08-1.56-.23-3.41.31-4.06,1.84-1.18,2.77-2.24,5.83-2.88,8.96-.38.6-.44,1.42-.65,2.05-.69,2.03-1.08,4.17-2.06,6.09-.98,1.91-2.65,4.19-4.95,4.35-5.08.36-7.77-7.05-10.53-10.45,1.71-1.41,3.35-2.91,4.84-4.53,2.32-2.52,4.47-5.27,6.41-8.07,1.92-2.8,3.95-6.04,4.44-9.47.54-3.73-.61-7.73-4.54-9.03-1.67-.57-3.23,1.53-2.3,3,2.11,3.33.19,7.35-1.73,10.27-3.15,4.77-6.98,9.34-11.42,12.99.65-6.48,1.51-13.14.49-19.38-.38-2.34-1.2-4.74-2.69-6.35-1.52-1.65-4.38-2.97-5.35,0-1.02,3.11-.42,6.83-.51,10.09-.22,7.79-1.04,15.54-1.19,23.34-.07,3.9-.61,8.46,1.25,12.07,1.44,2.8,5.39,6.07,8.37,3.4.74-.66.68-1.52.48-2.51-.46-2.27-.96-4.46-1.17-6.79-.03-.33-.05-.69-.08-1.04.89,1.46,1.74,2.95,2.73,4.23,2.29,2.98,5.21,5.66,9.03,6.37,4.58.85,8.04-2.67,9.97-6.43.46-.91.89-1.89,1.27-2.91.12.41.24.82.39,1.22.93,2.54,2.45,4.91,4.78,6.36,3.08,1.92,7.38,1.61,10.33-.33,2.15-1.41,3.46-3.64,4.33-6.05,1.12,0,2.25-.24,3.35-.78,1.24-.61,2.27-1.49,3.14-2.52.16,3.35.4,6.99,2.14,10.01,1.34,2.31,5.19,3.33,6.09-.04.3-1.13.46-2.24.53-3.34.67.85,1.49,1.61,2.4,2.24,4.43,3.03,10.13,2.32,13.29-2.12,2.21-3.12,3.05-7.12,3.36-10.92.54-.05,1.08-.12,1.63-.16,1.74-.14,4.01-.2,5.39-.55.07.11.13.22.21.32,1.57,2.21,3.54,3.89,5.64,5.58.06.04.12.1.17.15-1.85,2.67-2.96,5.96-.79,8.71,1.7,2.17,4.57,2.77,7.02,1.5,2.78-1.44,4.24-4.75,4.11-7.79-.1-2.33-.99-4.25-2.32-5.93.16-.09.31-.19.47-.28,1.39-.79,2.87-1.69,4.29-2.31.16,3.12.5,6.22,1.2,9.18.66,2.76,2.6,5.63,5.42,6.52,2.94.92,5.43-.21,7.72-2.07,1.31-1.06,2.46-2.59,3.39-4.21.83,2.77,2.51,5.12,5.68,5.88,4.89,1.17,8.47-3.41,10.26-7.68.12.56.27,1.12.48,1.67,1.39,3.73,5.55,6.93,9.66,6.25,3.27-.54,5.18-2.92,6.44-5.74.87,2.61,2.54,4.78,5.59,5.49,2.56.61,5.06-.92,6.82-2.74,1.78-1.82,3.22-4.93,3.82-6.88.02-.06.04-.12.05-.18.19,1.37.32,2.75.39,4.13-3.22,2.91-6.47,5.87-9.13,9.23-2.5,3.16-4.56,6.77-4.66,10.9-.09,3.96,1.6,7.88,5.83,8.71,8.29,1.63,13.15-5.88,15.07-12.79,1.18-4.24,1.66-8.79,1.63-13.18-.01-1.84-.15-3.68-.35-5.51,1.69-1.68,3.35-3.41,5-5.13.09,1.33.2,2.65.36,3.97.32,2.59.66,5.5,2.09,7.76.8,1.26,2.21,2.01,3.72,1.78,2.52-.38,3.39-3.13,3.76-5.3.56-3.35,1.43-6.65,2.62-9.84.74-2,1.6-4.02,2.62-5.94.13.93.31,1.84.55,2.68.62,2.16,1.77,4.3,3.66,5.61,3,2.07,7.62.9,8.87-2.68.78-2.24-1.5-2.54-2.78-3.65Zm-167.39,2.14c-.06,1.53-.26,3.08-.65,4.58-.05-.03-.1-.06-.14-.09-1.15-.89-2.3-2.1-3.8-2.17-.85-.04-1.57.6-1.72,1.41-.15.78.19,1.58.57,2.24.72,1.25,1.91,2.19,3.2,2.84-1.35,1.89-3.46,3.76-5.11,1.92-1.61-1.79-2.4-4.14-2.6-6.51-.23-2.7.22-5.4.75-8.03.32-1.59.74-3.16,1.18-4.72.23-.82.15-1.66-.15-2.43.73-.47,1.57-.73,2.39-.64,1.44.15,2.67.9,3.6,1.95,2.02,2.3,2.61,6.54,2.48,9.66Zm26.93,3.91c-.17.84-.38,1.68-.65,2.5-.4,1.19-.89,2.73-1.93,3.53-1.15.88-3.7-.41-4.39-1.43-1.41-2.08,3.38-3.74,4.66-4.16.4-.13,2.05-.61,2.35-.64-.01.07-.02.14-.04.21Zm.45-5.39c0,.45-.06.89-.07,1.33-.94.18-1.88.38-2.81.63-1.91.51-4.05,1.15-5.83,2.24.08-.05.16-.45.2-.55.75-2.1,1.71-4.2,2.82-6.17.93-1.65,1.91-3.54,3.36-4.79.26-.22.55-.43.89-.5,1.04-.23,1.39,1.22,1.43,2.12.08,1.83.07,3.86.03,5.68Zm25.15,15.04c-.09.43-.33.71-.64.86-.75.36-1.89-.04-2.14-.95-.36-1.33.25-2.8,1.03-3.98.19.23.38.5.54.71.59.95,1.45,2.16,1.21,3.35Zm42.6-14.83c-.39,1.78-.62,3.58-1.26,5.31-.74,1.98-1.65,3.96-3.02,5.59-.46.55-2.55,2.85-3.14,1.39-.67-1.63-.45-4.31-.42-6.04.06-3.17.36-6.27.87-9.39.31-1.85.94-4.75,2.67-5.4,1.2-.45,2.49.96,2.95,1.98.34.72,1.21,1.02,1.98.93-.27,1.87-.49,3.75-.63,5.63Zm32.78,23.66c-.46,2.38-1.2,4.85-2.04,6.46-.86,1.65-2.1,3.76-3.99,4.33-.64.19-1.21.31-1.61-.3-.84-1.28-.55-3.41-.19-4.79.75-2.92,2.62-5.35,4.63-7.54,1.24-1.35,2.54-2.65,3.86-3.94-.09,1.95-.28,3.89-.65,5.79Z"/>
      <path class="cls-2" d="m414.97,47.86c-.98,1.94-3.8,9.91-5.67,11.37-1.14.89-1.31-1.19-1.37-1.84-.16-1.75-.08-3.53-.05-5.29.07-3.89.24-7.79-.17-11.67-.3-2.84-1.48-6.1-4.46-7.06-4.16-1.33-7.62,2.9-9.02,6.3-.51,1.25-.98,2.5-1.43,3.77-.11-.62-.24-1.24-.41-1.85-.57-2.21-2.21-4.49-4.56-5.04-1.83-.42-3.87.33-5.07,1.73-1.3,1.51-2.08,3.47-2.86,5.29-.74,1.72-1.38,3.5-1.93,5.3.15-3.8.27-7.61.37-11.42.05-1.92-1.67-3.55-3.55-3.55-2.02,0-3.44,1.63-3.55,3.55-.22,3.8-.42,7.6-.59,11.4-.22.76-.36,1.56-.52,2.06-.51,1.58-1.02,3.15-1.58,4.71-.61,1.7-1.34,3.54-2.86,4.63-2.92,2.09-3.05-3.91-3.14-5.4-.12-1.99-.05-3.99.07-5.97.22-3.51.7-7,1.42-10.45.47-2.21-.66-4.79-3.03-5.33-2.17-.5-4.84.66-5.33,3.03-.04.21-.07.42-.12.62-1.7-2.7-5.48-4.2-8.55-3.52-4.98,1.09-7.24,6.53-8.32,10.94-.66,2.68-.89,5.48-1.03,8.23-.26,4.9.58,11.56,6.35,12.93,4.89,1.17,8.47-3.41,10.26-7.68.12.56.27,1.12.48,1.67,1.39,3.73,5.55,6.93,9.66,6.25,3.35-.55,5.26-3.04,6.53-5.94.55,2.38,1.68,4.53,3.87,6.16,1.13.84,2.69.44,3.68-.43.38-.33.7-.74.89-1.21.38-.89.28-1.96.34-2.9.07-1.05.17-2.1.31-3.14.27-2.09.67-4.16,1.21-6.2.13-.49.26-.98.41-1.46.57-1.92,1.25-3.83,2.07-5.65.36-.82.76-1.62,1.17-2.39,0,.07-.01.15-.01.2,0,2.22,0,4.44,0,6.66,0,2.08,0,4.23.64,6.23.54,1.69,2.17,3.16,4.05,3.07,1-.05,2.01-.5,2.75-1.2.93-.87,1.14-1.9,1.42-3.09.68-2.94,1.48-5.86,2.4-8.74.51-1.57,1.06-3.15,1.66-4.69.15-.39,1.48-3.68,2-2.48,0,4.38-.54,8.86-.64,13.28-.08,3.57-.51,7.39,1.39,10.6,3.07,5.18,9.22,3.83,12.16-.73,1.14-1.76,2.21-4.26,2.74-5.94.7-2.25,1.77-6.08,1.76-7.14,0-1.18-1.68-1.68-2.23-.6Zm-60.86-.71c-.39,1.78-.62,3.58-1.26,5.31-.74,1.98-1.65,3.96-3.02,5.59-.46.55-2.55,2.85-3.14,1.39-.67-1.63-.45-4.31-.42-6.04.06-3.17.36-6.27.87-9.39.31-1.85.94-4.75,2.67-5.4,1.2-.45,2.49.96,2.95,1.98.34.72,1.21,1.02,1.98.93-.27,1.87-.49,3.75-.63,5.63Z"/>
    </g>
  </g>
</svg>