<?xml version="1.0" encoding="UTF-8"?><svg id="Calque_2" xmlns="http://www.w3.org/2000/svg" viewBox="0 0 1000 1000"><path d="m990.45,498.27l-398.34-72.04c-10.23-1.85-18.24-9.9-20.06-20.18L500,0l-72.04,406.05c-1.82,10.28-9.83,18.33-20.06,20.18L9.55,498.27l-9.55,1.73c4.78.86,9.55,1.73,9.55,1.73l398.34,72.04c10.23,1.85,18.24,9.9,20.06,20.18l72.04,406.05,72.04-406.05c1.82-10.28,9.83-18.33,20.06-20.18l398.34-72.04s4.78-.86,9.55-1.73l-9.55-1.73Z"/><path d="m758.26,234.13c3.08.56,5.49,2.97,6.04,6.05l21.7,121.82,21.7-121.82c.55-3.08,2.96-5.5,6.04-6.05l119.98-21.61,2.88-.52-2.88-.52-119.98-21.61c-3.08-.56-5.49-2.97-6.04-6.05l-21.7-121.82-21.7,121.82c-.55,3.08-2.96,5.5-6.04,6.05l-119.98,21.61-2.88.52,2.88.52,119.98,21.61Z"/><path d="m262.27,746.03c-2.36-.43-4.21-2.28-4.63-4.64l-16.64-93.39-16.64,93.39c-.42,2.36-2.27,4.22-4.63,4.64l-91.98,16.57s-1.1.2-2.21.4c1.1.2,2.21.4,2.21.4l91.98,16.57c2.36.43,4.21,2.28,4.63,4.64l16.64,93.39,16.64-93.39c.42-2.36,2.27-4.22,4.63-4.64l91.98-16.57s1.1-.2,2.21-.4c-1.1-.2-2.21-.4-2.21-.4l-91.98-16.57Z"/></svg>