<?xml version="1.0" encoding="UTF-8"?><svg id="Calque_2" xmlns="http://www.w3.org/2000/svg" viewBox="0 0 30 30"><defs><style>.cls-1{fill:#010101;}</style></defs><g id="Calque_1-2"><path d="m30,15.03c-1.16.22-2.26.43-3.35.64-1.03.2-2.05.41-3.08.6-1.16.22-2.32.41-3.48.62-.82.15-1.65.31-2.47.48-.08.02-.19.14-.21.22-.19.91-.37,1.83-.54,2.75-.22,1.17-.45,2.33-.66,3.5-.19,1.01-.36,2.01-.55,3.02-.17.92-.35,1.83-.53,2.75-.02.12-.02.24-.03.36-.03,0-.06.01-.08.02-.06-.22-.13-.44-.17-.66-.23-1.18-.45-2.35-.67-3.53-.23-1.27-.44-2.54-.68-3.81-.21-1.13-.45-2.26-.67-3.4-.06-.29-.07-.59-.14-.88-.04-.13-.16-.32-.27-.34-1-.2-2.02-.37-3.02-.56-1-.19-1.99-.39-2.98-.58-.91-.17-1.82-.34-2.73-.51-.63-.12-1.26-.24-1.9-.36-.53-.1-1.07-.21-1.6-.32-.04,0-.07-.03-.18-.08.61-.12,1.14-.22,1.67-.32.65-.12,1.31-.23,1.96-.36.93-.17,1.86-.35,2.79-.53.63-.12,1.26-.25,1.89-.37.8-.15,1.61-.29,2.41-.44.58-.11,1.16-.21,1.73-.35.1-.03.22-.21.24-.33.23-1.14.44-2.28.65-3.43.19-1.05.37-2.1.56-3.16.14-.75.29-1.49.43-2.23.17-.92.34-1.84.52-2.75.05-.24.1-.47.23-.7.1.55.21,1.09.31,1.64.19,1.02.38,2.03.56,3.05.22,1.18.43,2.36.65,3.54.19,1,.39,2.01.59,3.01.07.37.18.73.2,1.1.01.3.21.32.39.35,1.42.28,2.85.55,4.27.82,1.16.21,2.32.4,3.48.62,1.11.21,2.22.45,3.33.67.3.06.6.09.91.14.06,0,.11.05.23.1Z"/><path class="cls-1" d="m23.64,2.04c.22,1.13.46,2.26.64,3.4.05.33.28.28.42.31.97.21,1.95.38,2.92.56.09.02.18,0,.28.07-.28.07-.57.14-.85.2-.67.13-1.34.34-2.02.36-.7.02-.79.42-.87.95-.15.92-.32,1.84-.55,2.77-.06-.23-.14-.45-.18-.69-.16-.91-.31-1.82-.49-2.73-.01-.08-.16-.17-.25-.19-1.11-.22-2.23-.42-3.34-.63-.03,0-.06-.06-.09-.09,1.16-.22,2.32-.43,3.48-.65.08-.02.19-.1.2-.17.17-.88.32-1.77.48-2.66.05-.27.11-.55.16-.82h.07Z"/><path class="cls-1" d="m7.25,19.41c.18.96.35,1.83.53,2.7.02.08.13.19.21.21.83.17,1.66.33,2.5.49.06.01.11.05.23.11-.96.18-1.86.35-2.75.5-.32.05-.21.32-.25.47-.17.77-.29,1.55-.43,2.33,0,.04-.05.07-.12.14-.12-.64-.23-1.23-.34-1.83-.05-.27-.07-.55-.15-.81-.03-.11-.16-.26-.26-.28-.75-.16-1.5-.28-2.25-.42-.15-.03-.3-.07-.45-.16.28-.06.57-.12.85-.18.62-.12,1.24-.22,1.86-.35.11-.02.23-.2.25-.32.15-.77.27-1.54.41-2.31.01-.08.08-.14.15-.28Z"/></g></svg>